<?xml version="1.0" encoding="utf-8"?>
<!-- Generator: Adobe Illustrator 21.1.0, SVG Export Plug-In . SVG Version: 6.00 Build 0)  -->
<svg version="1.1" xmlns="http://www.w3.org/2000/svg" xmlns:xlink="http://www.w3.org/1999/xlink" x="0px" y="0px"
	 viewBox="0 0 841.9 595.3" style="enable-background:new 0 0 841.9 595.3;" xml:space="preserve">
<style type="text/css">
	.st0{display:none;}
	.st1{display:inline;}
</style>
<g id="Layer_1" class="st0">
	
		<image style="display:inline;overflow:visible;opacity:0.48;" width="262" height="375" xlink:href="../../Screen Shot 2017-08-02 at 19.10.19.png"  transform="matrix(1.3069 0 0 1.3069 249.7418 52.5972)">
	</image>
</g>
<g id="Layer_2" class="st0">
	<path class="st1" d="M527.6,135.6v-11.2h-10.3v-11.1H292.6l-0.6,11.1h-11.8v10.8h-10.8v279.5h10.8v48h251v-51h8v-276H527.6z
		 M517.8,449.1h-221v-25h221V449.1z M527.4,412.1h-246V136.6h12l-0.2-11.8h224v10.8h10.2V412.1z"/>
	<path class="st1" d="M496.2,154.1v-11.3H311.5l0.2,12.7h-9.8v149h13.3v8.7c0.5-0.6,181.7,0,181.7,0v-11h10v-148H496.2z
		 M494.6,303.4H314.2v-148h180.3V303.4z"/>
	<g class="st1">
		<g>
			<path d="M399.6,185.7h9.5c0,0-0.2,63.2,0,63.2s-20.5,0-20.5,0v-9.8h10.3L399.6,185.7z"/>
			<path d="M367.1,261.2h10v9c0,0,41-0.2,41.2,0s0-9,0-9h12.8v10.3h-10.5c0,0,0.4,11.6,0,11.2s-43,0-43,0v-10.8h-10.5V261.2z"/>
			<rect x="355.4" y="185.7" width="11.8" height="20"/>
			<rect x="431.1" y="185.7" width="10.8" height="20"/>
		</g>
		<rect x="431.1" y="356.7" width="63.5" height="8.5"/>
		<rect x="302.1" y="367.7" width="21.5" height="9"/>
	</g>
</g>
<g id="Layer_2_copy">
	<path d="M527.6,135.6v-11.2h-10.3v-11.1H292.6l-0.6,11.1h-11.8v10.8h-10.8v279.5h10.8v48h251v-51h8v-276H527.6z M517.8,449.1h-221
		v-25h221V449.1z M527.4,412.1h-246V136.6h12l-0.2-11.8h224v10.8h10.2V412.1z"/>
	<path d="M496.2,154.1v-11.3H311.5l0.2,12.7h-9.8v149h13.3v8.7c0.5-0.6,181.7,0,181.7,0v-11h10v-148H496.2z M494.6,303.4H314.2v-148
		h180.3V303.4z"/>
	<path d="M399.6,185.7h9.5c0,0-0.2,63.2,0,63.2s-20.5,0-20.5,0v-9.8h10.3L399.6,185.7z"/>
	<path d="M431.1,282.7h-10v-9c0,0-41,0.2-41.2,0s0,9,0,9h-12.8v-10.3h10.5c0,0-0.4-11.6,0-11.2s43,0,43,0v10.8h10.5V282.7z"/>
	<rect x="355.4" y="185.7" width="11.8" height="10"/>
	<rect x="343.6" y="195.7" width="11.8" height="10"/>
	<rect x="367.1" y="195.7" width="11.8" height="10"/>
	<rect x="343.6" y="175.7" width="11.8" height="10"/>
	<rect x="367.1" y="175.7" width="11.8" height="10"/>
	<rect x="419.4" y="175.7" width="11.8" height="10"/>
	<rect x="419.4" y="195.7" width="11.8" height="10"/>
	<rect x="441.8" y="195.7" width="11.8" height="10"/>
	<rect x="441.8" y="175.7" width="11.8" height="10"/>
	<rect x="431.1" y="185.7" width="10.8" height="10"/>
	<rect x="431.1" y="356.7" width="63.5" height="8.5"/>
	<rect x="302.1" y="367.7" width="21.5" height="9"/>
</g>
</svg>
