<?xml version="1.0" encoding="utf-8"?>
<!-- Generator: Adobe Illustrator 21.1.0, SVG Export Plug-In . SVG Version: 6.00 Build 0)  -->
<svg version="1.1" xmlns="http://www.w3.org/2000/svg" xmlns:xlink="http://www.w3.org/1999/xlink" x="0px" y="0px"
	 viewBox="0 0 32 32" style="enable-background:new 0 0 32 32;" xml:space="preserve">
<style type="text/css">
	.st0{display:none;}
	.st1{fill:#FFFFFF;stroke:#000000;stroke-width:0.5;stroke-miterlimit:10;}
	.st2{fill:none;stroke:#000000;stroke-width:0.5;stroke-miterlimit:10;}
	.st3{stroke:#000000;stroke-width:0.5;stroke-miterlimit:10;}
</style>
<g id="Layer_1" class="st0">
	
		<image style="display:inline;overflow:visible;" width="224" height="174" xlink:href="../Screen Shot 2017-07-13 at 21.32.12.png"  transform="matrix(0.2496 0 0 0.2496 -11.4294 0.3311)">
	</image>
</g>
<g id="Layer_2">
	<path class="st1" d="M27.4,2.4L4.2,2.2c0,0-0.7-0.1-1,0.3S3,28.5,3,28.5s0,0.2,0.3,0.4c0.3,0.2,26,0,26,0s0.3,0,0.4-0.2
		c0.1-0.2,0-23.9,0-23.9L27.4,2.4z"/>
	<path class="st2" d="M26.5,28.6v-9.4c0-0.5-0.4-0.8-0.8-0.8H7.8c-0.4,0-0.7,0.3-0.7,0.7v9.7L26.5,28.6z"/>
	<path class="st3" d="M8,2.4v6.9c0,1,0.8,1.9,1.9,1.9h10.4c1.1,0,2-0.9,2-2V2.4L8,2.4z M20.2,8.7c-0.2,0.2-0.4,0.8-0.4,0.8h-2.5
		c0,0,0.1-0.6-0.2-0.9s-0.7-0.4-0.7-0.4V4.5c0,0,0.6,0,1-0.1c0.3-0.1,0.4-1,0.4-1s2-0.1,2,0.3c0,0.8,1,0.9,1,0.9l0.1,4
		C20.9,8.5,20.5,8.5,20.2,8.7z"/>
</g>
</svg>
