<?xml version="1.0" encoding="utf-8"?>
<!-- Generator: Adobe Illustrator 21.1.0, SVG Export Plug-In . SVG Version: 6.00 Build 0)  -->
<svg version="1.1" id="Layer_2" xmlns="http://www.w3.org/2000/svg" xmlns:xlink="http://www.w3.org/1999/xlink" x="0px" y="0px"
	 viewBox="0 0 300 300" style="enable-background:new 0 0 300 300;" xml:space="preserve">
<style type="text/css">
	.st0{fill:#FFFFFF;stroke:#010202;stroke-miterlimit:10;}
	.st1{fill:#FFFFFF;}
	.st2{fill:#010202;}
</style>
<path class="st0" d="M-20,213.6"/>
<g>
	<rect x="122" y="21.5" class="st1" width="42.5" height="7.1"/>
	<rect x="47.9" y="36.3" class="st1" width="191.1" height="19.5"/>
	<rect x="52.9" y="62.6" class="st1" width="180.3" height="222.5"/>
</g>
<g>
	<path class="st2" d="M238.7,37.3l0.1-8.2l-69,0.4v-7.6h-5.9v-7.4h-42.8v8.1h-6.6v6.9H45.9v6.7H37v27.7h7.4v221.9h5.9v7h181.4v-5.9
		h6.6V64.9h7.4V37.3H238.7z M163.4,21.7l0.2,7h-42.1v-6.9L163.4,21.7z M231.7,285.4H51.9V62.7h180.2L231.7,285.4z M46.9,55.9V36.4
		H238v19.3L46.9,55.9z"/>
	<g>
		<polygon class="st2" points="203.5,84.5 203.5,92 197.3,92 197.3,258.5 204.9,258.5 204.9,265.6 197.3,265.6 197.3,258.5 
			190.5,258.8 190.5,92.1 197.3,92 197.3,84.5 		"/>
		<polygon points="169.6,84.3 163.5,84.3 163.5,90.8 156.7,90.8 156.7,258.1 162.9,258.1 162.9,265.2 169.3,265.2 169.3,258.4 
			164.8,258.4 164.8,93.4 169.6,93.4 		"/>
		<polygon points="134.2,84.4 128.1,84.4 128.1,90.9 121.3,90.9 121.3,258.2 127.5,258.2 127.5,265.4 133.9,265.4 133.9,258.5 
			129.5,258.5 129.5,93.5 134.2,93.5 		"/>
		<polygon points="99.8,85.5 93.6,85.5 93.6,92 86.9,92 86.9,259.3 93.1,259.3 93.1,266.5 99.5,266.5 99.5,259.7 95,259.7 95,94.6 
			99.8,94.6 		"/>
	</g>
</g>
</svg>
